<svg version="1.0" xmlns="http://www.w3.org/2000/svg"

 viewBox="0 0 1024.000000 253.000000"
 preserveAspectRatio="xMidYMid meet" class="animated-svg">

<g transform="translate(0.000000,253.000000) scale(0.100000,-0.100000)"
fill="transparent" stroke="none">
<path class="svg-animated__forest" d="M9106 2367 c-15 -11 -17 -17 -7 -35 15 -27 31 -28 31 -2 0 15 7 20
24 20 16 0 27 -7 31 -20 7 -22 38 -26 80 -10 18 7 39 7 62 1 20 -6 44 -6 57
-1 14 5 45 3 82 -5 32 -7 82 -15 111 -18 46 -5 54 -3 78 21 23 23 29 24 47 13
13 -8 61 -14 122 -16 56 -1 109 -6 118 -10 16 -6 78 30 78 46 0 12 -32 20 -44
10 -7 -6 -17 -6 -26 -1 -16 10 -57 3 -76 -12 -7 -5 -29 -5 -53 1 -23 5 -50 7
-61 4 -10 -3 -29 2 -42 11 -31 22 -45 20 -74 -11 l-24 -26 -93 12 c-113 16
-246 20 -253 9 -10 -16 -53 -8 -64 12 -13 24 -76 28 -104 7z"/>
<path class="svg-animated__forest" d="M8900 2358 c-19 -5 -40 -14 -45 -18 -6 -5 -26 -8 -44 -8 -18 1 -36
-3 -39 -9 -8 -12 -122 -9 -174 5 -39 10 -85 6 -106 -11 -8 -6 -32 -10 -55 -9
-23 2 -55 -4 -70 -12 -15 -8 -34 -13 -43 -9 -8 3 -22 -1 -32 -9 -13 -12 -40
-15 -112 -13 -88 2 -97 1 -117 -21 -14 -15 -34 -24 -55 -25 -85 -2 -93 -4 -96
-23 -5 -25 13 -42 30 -29 7 6 36 14 63 18 28 4 58 15 69 24 10 9 28 17 40 18
11 1 36 5 54 9 21 4 43 1 59 -7 21 -11 29 -11 55 4 16 9 38 17 49 17 11 0 34
7 50 16 22 11 43 13 70 9 25 -4 45 -3 54 5 16 13 48 15 173 6 77 -5 94 -3 98
9 4 10 20 15 44 15 21 0 51 7 66 15 32 17 74 20 74 6 0 -5 15 -26 34 -45 30
-32 35 -34 47 -20 11 13 7 20 -25 50 -33 31 -70 55 -78 53 -2 0 -19 -5 -38
-11z"/>
<path class="svg-animated__forest" d="M7805 2209 c-26 -17 -40 -19 -97 -14 -44 4 -68 2 -73 -5 -13 -22 -61
-33 -150 -36 -154 -5 -172 -8 -197 -30 -18 -18 -28 -20 -48 -12 -14 5 -34 7
-45 4 -11 -3 -33 -1 -50 3 -16 5 -52 14 -79 20 -45 11 -51 10 -72 -10 -13 -13
-24 -26 -24 -31 0 -13 27 -9 33 6 7 17 99 10 141 -11 15 -8 39 -12 51 -9 13 3
35 2 50 -4 21 -8 31 -6 53 10 37 27 69 32 207 37 113 3 121 5 140 27 16 20 24
23 38 15 23 -13 114 -2 145 17 12 8 23 12 23 9 1 -3 3 -9 4 -15 1 -5 3 -14 4
-20 0 -5 8 -10 17 -10 12 0 15 6 10 23 -3 12 -6 30 -6 40 0 24 -37 22 -75 -4z"/>
<path class="svg-animated__forest" d="M6075 2118 c-22 -5 -56 -18 -76 -28 -20 -11 -50 -22 -67 -25 -16 -2
-61 -20 -99 -39 -64 -32 -74 -34 -107 -24 -20 6 -36 15 -36 19 0 11 -79 49
-100 49 -9 0 -21 -5 -27 -11 -7 -7 -17 -8 -29 -1 -11 5 -51 12 -90 16 -72 7
-120 -4 -137 -31 -10 -16 -38 -17 -71 -2 -21 10 -31 8 -61 -10 -38 -22 -85
-28 -85 -10 0 6 -21 9 -57 6 -42 -3 -61 -10 -74 -26 -13 -16 -24 -19 -46 -15
-15 3 -48 -2 -72 -10 -41 -15 -45 -15 -71 4 -33 24 -59 25 -86 5 -10 -8 -27
-15 -37 -15 -10 0 -30 -9 -45 -20 -28 -20 -89 -28 -133 -16 -17 5 -30 3 -34
-4 -4 -6 -19 -9 -33 -6 -20 4 -36 -2 -62 -24 -22 -19 -29 -30 -19 -30 8 0 20
5 27 12 12 12 69 19 152 18 58 0 102 8 118 24 10 9 28 16 39 16 11 0 26 7 33
15 17 21 43 19 70 -5 28 -24 32 -24 72 -4 20 11 45 14 70 11 31 -4 44 0 69 20
16 14 32 23 35 20 4 -3 17 -1 31 4 19 7 30 6 42 -4 28 -25 45 -25 86 -2 34 19
49 21 98 16 63 -8 69 -6 86 27 12 22 17 23 64 17 29 -4 69 -11 90 -16 25 -7
49 -7 67 -1 35 13 95 -19 88 -46 -4 -15 4 -17 66 -17 61 1 81 6 146 38 41 20
82 37 91 37 10 0 30 6 46 14 77 38 164 47 194 20 13 -12 44 -17 121 -19 57 -2
117 -7 134 -10 21 -5 34 -2 43 9 9 10 22 14 37 10 34 -9 116 5 112 18 -5 15
-143 15 -160 0 -8 -6 -45 -8 -93 -5 -44 2 -99 4 -122 4 -33 -1 -46 4 -55 19
-14 22 -70 25 -143 8z"/>
<path class="svg-animated__forest" d="M6699 2103 c-12 -15 -12 -16 8 -11 13 4 27 0 34 -8 14 -16 160 -15
166 2 5 16 -74 25 -106 13 -20 -8 -28 -7 -37 5 -15 21 -48 20 -65 -1z"/>
<path class="svg-animated__forest" d="M4139 1899 c-8 -5 -42 -9 -75 -9 -42 0 -65 -5 -74 -15 -7 -8 -19 -15
-26 -15 -8 0 -14 -4 -14 -10 0 -13 33 -13 46 0 12 12 145 15 224 6 55 -7 88 3
76 22 -3 6 -23 8 -45 5 -24 -3 -50 0 -69 10 -18 9 -35 11 -43 6z"/>
<path class="svg-animated__forest" d="M3869 1861 c-19 -4 -46 -15 -59 -24 -30 -21 -54 -22 -70 -2 -17 21
-56 19 -88 -5 -28 -20 -79 -34 -192 -51 -36 -5 -76 -18 -90 -28 -42 -30 -76
-36 -209 -40 -14 -1 -34 -7 -46 -15 -27 -18 -54 -21 -78 -11 -25 10 -92 -11
-142 -45 -30 -20 -51 -27 -83 -26 -35 0 -48 -5 -72 -29 -47 -48 -56 -54 -107
-66 -26 -7 -54 -17 -62 -23 -8 -6 -41 -13 -75 -16 -53 -4 -62 -8 -73 -31 -15
-31 -116 -79 -166 -79 -21 0 -54 -14 -92 -40 -33 -22 -72 -40 -86 -40 -15 0
-32 -6 -38 -14 -18 -21 -124 -41 -149 -27 -12 7 -44 8 -80 5 -39 -4 -62 -3
-66 5 -11 18 -40 13 -54 -10 -9 -14 -19 -18 -33 -14 -22 7 -67 13 -142 19 -35
2 -63 14 -105 42 -76 52 -83 54 -110 33 -18 -14 -29 -16 -48 -8 -14 5 -36 9
-50 9 -19 0 -28 8 -35 30 -10 28 -15 30 -58 30 -38 0 -48 4 -56 23 -8 18 -21
23 -70 28 -69 7 -125 28 -125 46 0 7 -6 13 -12 13 -7 0 -26 7 -42 15 -16 8
-39 12 -52 9 -15 -4 -31 -1 -42 8 -9 9 -30 18 -46 22 -16 4 -43 22 -61 40 -18
19 -49 40 -70 47 -20 8 -41 22 -46 31 -13 23 -24 23 -47 -2 l-19 -21 -38 23
c-21 12 -33 24 -27 26 14 4 16 38 2 47 -5 3 -33 7 -63 9 -29 1 -59 6 -67 11
-8 5 -18 1 -27 -11 -10 -14 -17 -16 -30 -8 -26 17 -29 37 -4 29 26 -8 27 0 2
26 -16 17 -22 18 -44 8 -18 -8 -26 -19 -24 -33 2 -18 -4 -22 -36 -24 -64 -5
-45 -28 28 -35 36 -4 70 -9 75 -12 15 -9 12 -91 -4 -104 -16 -13 -27 -61 -15
-61 5 0 9 4 9 9 0 9 91 7 170 -4 78 -11 117 -5 105 16 -4 5 -2 9 4 9 16 0 17
44 1 57 -13 11 -12 12 7 13 12 0 25 -4 28 -10 3 -5 26 -18 51 -29 24 -11 47
-27 50 -35 7 -17 68 -56 88 -56 8 0 19 -7 26 -15 7 -9 29 -15 55 -15 27 0 51
-7 67 -19 31 -24 138 -61 178 -61 20 0 30 -5 30 -15 0 -19 31 -35 70 -35 23 0
33 -6 39 -23 7 -18 23 -27 77 -40 62 -15 71 -15 100 -1 33 16 34 15 91 -24 54
-37 65 -40 146 -47 49 -3 100 -10 114 -16 19 -7 30 -5 50 10 18 15 30 18 48
11 53 -20 292 1 302 27 3 7 20 13 37 13 22 0 50 13 87 41 35 26 61 38 74 35
10 -3 37 3 60 13 22 10 62 28 89 40 28 13 50 30 53 41 4 16 14 20 52 20 29 0
57 7 76 20 17 11 41 20 54 20 31 0 121 50 121 67 0 7 8 13 18 13 10 0 22 3 25
6 4 4 19 8 34 9 16 1 52 18 82 36 45 28 63 34 104 32 27 -1 66 5 86 13 21 9
68 16 114 16 43 1 80 5 83 10 3 4 20 8 38 8 25 0 35 5 39 19 3 14 17 20 58 25
72 9 210 47 230 63 20 17 34 16 48 0 12 -15 81 -9 116 10 11 6 37 15 58 20 21
4 38 13 38 18 0 13 -17 15 -62 6z m-3602 -176 c21 -4 49 -15 64 -26 15 -10 32
-19 37 -19 13 0 56 -59 49 -67 -3 -3 -32 0 -64 7 -32 7 -77 12 -99 12 l-42 -1
-5 57 c-5 61 1 84 14 59 5 -8 26 -18 46 -22z"/>
<path class="svg-animated__forest" d="M5386 1701 c-10 -11 -17 -28 -16 -38 4 -38 -1 -52 -31 -82 -17 -18
-29 -38 -27 -48 4 -15 13 -9 46 26 37 39 42 50 42 93 0 26 5 48 10 48 6 0 10
5 10 10 0 16 -15 12 -34 -9z"/>
<path class="svg-animated__forest" d="M5472 1681 c-9 -5 -11 -17 -6 -36 5 -19 2 -32 -7 -39 -8 -6 -23 -22
-34 -34 -15 -19 -17 -25 -6 -32 10 -5 0 -14 -33 -28 -25 -12 -46 -26 -46 -32
0 -8 6 -7 21 1 12 6 35 12 53 12 25 2 31 6 29 24 -1 11 4 27 12 33 8 7 15 18
15 25 0 7 7 16 16 19 12 4 14 14 9 36 -4 19 -2 36 5 45 10 12 10 15 -1 15 -8
0 -20 -4 -27 -9z"/>
<path class="svg-animated__forest" d="M3481 1574 c-16 -12 -20 -19 -12 -27 7 -7 16 -6 29 6 10 9 28 17 40
17 12 0 22 5 22 10 0 16 -53 12 -79 -6z"/>
<path class="svg-animated__church" d="M4948 1565 c-3 -27 -8 -31 -53 -40 -91 -19 -122 -53 -109 -121 9 -49
27 -43 19 6 l-7 40 36 0 36 0 0 -87 c1 -109 9 -123 76 -124 l49 -1 -40 -9
c-93 -21 -86 -16 -79 -55 5 -29 2 -39 -17 -57 -13 -12 -27 -21 -32 -19 -5 1
-11 -7 -14 -18 -5 -20 -31 -26 -95 -21 -16 1 -28 -3 -28 -8 0 -6 -13 -11 -28
-11 -15 0 -33 -5 -39 -11 -6 -6 -59 -12 -124 -13 -143 -3 -169 -13 -169 -61 0
-24 5 -35 15 -35 9 0 15 9 15 23 0 30 45 54 66 36 11 -9 20 -9 38 1 13 7 28
10 34 6 5 -3 74 6 153 19 79 14 149 23 156 20 8 -2 16 2 19 10 4 8 13 15 20
15 8 0 19 11 24 25 5 14 14 25 19 25 5 0 12 9 16 19 8 27 78 24 83 -3 2 -11
17 -30 33 -43 16 -14 27 -29 23 -34 -3 -5 2 -9 10 -9 10 0 16 9 16 25 0 24 2
25 70 25 63 0 70 -2 71 -20 3 -39 4 -43 17 -47 8 -3 12 8 12 36 l0 40 85 -5
c70 -5 85 -3 85 9 0 20 -20 23 -117 23 l-81 -1 -6 29 c-10 49 -7 96 7 97 6 0
22 2 34 5 20 3 22 -1 25 -44 2 -34 7 -47 18 -47 8 0 14 5 14 10 -1 6 -4 29 -8
51 -6 41 -6 41 30 47 55 9 63 2 66 -64 2 -33 7 -58 13 -57 6 2 9 28 6 61 -3
51 -1 57 16 57 32 0 43 -21 43 -82 0 -47 3 -58 16 -58 14 0 16 8 10 46 -3 26
-6 57 -6 70 0 16 -16 36 -51 64 -48 38 -79 50 -79 32 0 -5 11 -15 25 -22 36
-19 31 -25 -22 -26 -27 -1 -70 -4 -98 -8 l-50 -7 22 22 c13 13 40 25 63 28 48
7 57 25 15 29 -16 2 -34 8 -39 13 -5 5 -55 6 -111 2 l-102 -6 -7 63 c-7 56
-12 68 -45 99 -21 20 -43 45 -49 56 -9 18 -11 17 -14 -10z m52 -70 c34 -25 35
-29 31 -120 -1 -27 -8 -34 -66 -63 -35 -17 -67 -28 -69 -23 -3 5 -9 41 -12 82
l-7 73 44 38 c24 21 44 38 45 38 0 0 15 -11 34 -25z m-105 -4 c-12 -10 -65
-24 -65 -16 0 7 40 24 60 24 8 1 10 -2 5 -8z m274 -184 c-35 -32 -41 -34 -138
-40 -55 -4 -101 -5 -101 -3 0 4 22 14 125 62 17 7 57 14 90 14 l60 0 -36 -33z
m61 8 c-7 -9 -15 -13 -17 -11 -7 7 7 26 19 26 6 0 6 -6 -2 -15z m-56 -118 c8
-42 7 -50 -11 -66 -13 -12 -38 -20 -69 -22 -48 -3 -49 -2 -46 25 4 35 -16 96
-31 96 -8 0 -7 4 2 9 8 5 44 8 80 7 l66 -1 9 -48z m-254 -7 c0 -5 -5 -10 -11
-10 -5 0 -7 5 -4 10 3 6 8 10 11 10 2 0 4 -4 4 -10z m100 -6 c0 -14 -3 -14
-15 -4 -8 7 -15 14 -15 16 0 2 7 4 15 4 8 0 15 -7 15 -16z m10 -38 c0 -3 -4
-8 -10 -11 -5 -3 -10 -1 -10 4 0 6 5 11 10 11 6 0 10 -2 10 -4z"/>
<path class="svg-animated__church" d="M4968 1443 c-6 -31 4 -63 19 -63 12 0 14 7 9 31 -3 17 -6 35 -6 40 0
16 -18 9 -22 -8z"/>
<path class="svg-animated__church" d="M4914 1436 c-10 -26 0 -71 16 -71 11 0 15 12 16 43 0 29 -4 42 -13
42 -8 0 -16 -6 -19 -14z"/>
<path class="svg-animated__forest" d="M3524 1525 c-12 -9 -31 -12 -49 -9 -28 5 -34 1 -63 -44 -49 -76 -65
-119 -52 -142 16 -30 44 -26 36 4 -7 29 6 68 41 119 21 30 32 37 59 37 18 0
36 5 39 10 3 6 15 10 26 10 23 0 25 15 3 24 -20 8 -17 8 -40 -9z"/>
<path class="svg-animated__forest" d="M9185 1530 c-9 -15 3 -26 37 -34 28 -6 47 9 32 24 -16 16 -62 22 -69
10z"/>
<path class="svg-animated__forest" d="M8362 1478 c3 -7 22 -17 43 -22 43 -10 97 -62 91 -88 -2 -10 2 -22 9
-28 10 -9 16 -6 24 9 17 31 13 49 -13 66 -13 9 -26 24 -29 35 -3 11 -20 23
-43 29 -52 15 -87 14 -82 -1z"/>
<path class="svg-animated__forest" d="M8651 1472 c-9 -18 -6 -20 29 -26 41 -6 90 6 90 24 0 5 -15 10 -32
10 -18 0 -43 3 -55 6 -15 4 -24 0 -32 -14z"/>
<path class="svg-animated__forest" d="M6637 1469 c-9 -6 -17 -17 -17 -26 0 -13 3 -14 11 -6 6 6 17 9 24 7
18 -7 27 12 12 24 -8 7 -18 7 -30 1z"/>
<path class="svg-animated__forest" d="M8302 1472 c-13 -2 -26 -10 -29 -18 -3 -8 -11 -14 -19 -14 -7 0 -21
-11 -30 -25 -17 -25 -13 -55 6 -55 6 0 9 4 6 9 -12 19 6 41 32 39 16 -2 27 2
28 10 1 6 2 17 3 22 0 6 12 10 26 10 26 0 34 15 13 22 -7 2 -23 2 -36 0z"/>
<path class="svg-animated__forest" d="M7413 1358 c-10 -18 11 -23 106 -26 118 -4 211 6 211 22 0 13 -309
16 -317 4z"/>
<path class="svg-animated__forest" d="M6286 1351 c-3 -4 -16 -6 -29 -4 -14 3 -29 -2 -37 -11 -17 -21 -4
-34 19 -19 11 7 22 8 28 2 9 -9 82 20 83 34 0 10 -58 9 -64 -2z"/>
<path class="svg-animated__forest" d="M8120 1353 c-13 -3 -33 -11 -44 -19 -11 -8 -28 -14 -37 -14 -9 0 -20
-7 -23 -16 -9 -22 -2 -27 21 -16 10 6 44 18 76 27 50 15 65 15 104 5 25 -7 54
-22 64 -34 15 -15 22 -17 31 -8 18 18 -17 50 -75 67 -51 15 -70 16 -117 8z"/>
<path class="svg-animated__forest" d="M9650 1348 c0 -16 19 -38 33 -38 4 0 7 10 5 22 -3 25 -38 39 -38 16z"/>
<path class="svg-animated__forest" d="M4790 1331 c-5 -11 -10 -33 -10 -49 0 -16 -7 -46 -16 -67 l-15 -37
-24 22 c-14 13 -27 31 -30 40 -4 13 -17 17 -45 17 -23 0 -43 -4 -46 -8 -3 -5
-17 -9 -32 -9 -55 -1 -114 -100 -77 -130 22 -18 38 4 31 43 -4 20 -1 27 10 27
8 0 17 6 20 14 3 8 13 12 23 9 9 -2 23 2 29 10 18 21 62 9 80 -23 9 -15 25
-31 36 -36 11 -5 21 -15 24 -21 3 -10 -16 -13 -72 -13 -44 0 -76 -4 -76 -10 0
-11 3 -11 109 -12 49 -1 76 3 79 10 2 7 -4 12 -13 12 -12 0 -15 5 -9 23 19 60
33 121 28 129 -3 4 0 16 5 25 9 15 10 12 11 -15 0 -49 29 -142 44 -142 10 0 9
17 -5 78 -10 42 -21 89 -24 105 -6 32 -20 35 -35 8z"/>
<path class="svg-animated__forest" d="M195 1301 l7 -42 -51 7 c-28 4 -51 3 -51 -2 1 -13 69 -41 118 -48 37
-6 42 -4 42 14 0 11 -4 20 -9 20 -5 0 -16 19 -23 42 -20 58 -43 64 -33 9z"/>
<path class="svg-animated__forest" d="M9218 1329 c-25 -14 -22 -29 5 -27 12 1 39 -9 60 -21 35 -20 57 -21
57 -2 0 10 -79 61 -93 61 -7 0 -20 -5 -29 -11z"/>
<path class="svg-animated__forest" d="M4585 1320 c-3 -5 -14 -10 -25 -10 -17 0 -36 -27 -26 -37 7 -8 76 18
76 28 0 5 20 9 45 9 25 0 45 5 45 10 0 6 -24 10 -54 10 -30 0 -58 -4 -61 -10z"/>
<path class="svg-animated__forest" d="M9550 1307 c0 -17 36 -36 75 -38 45 -2 55 0 55 11 0 14 -30 27 -82
34 -38 6 -48 4 -48 -7z"/>
<path class="svg-animated__town" d="M8690 1292 c-14 -10 -39 -23 -57 -26 -39 -9 -63 -33 -40 -42 9 -3 24
-1 35 5 17 9 19 8 15 -8 -4 -17 -19 -19 -161 -23 -143 -5 -159 -3 -178 14 -26
23 -34 23 -34 -3 0 -17 -4 -20 -23 -15 -45 11 -161 -74 -142 -104 4 -6 8 -39
9 -75 3 -54 1 -63 -10 -54 -19 16 -34 2 -34 -32 0 -35 -31 -69 -58 -62 -10 2
-39 -5 -63 -16 -24 -11 -71 -31 -104 -44 -57 -24 -60 -27 -63 -63 -4 -46 5
-84 19 -84 8 0 9 15 5 44 -7 42 -5 45 26 64 18 11 61 32 96 46 57 23 68 24
115 14 29 -5 77 -22 107 -37 50 -24 55 -29 58 -63 l3 -36 -41 10 c-22 6 -43 8
-47 5 -9 -9 17 -37 34 -37 7 0 16 -7 20 -16 3 -8 23 -22 44 -30 35 -15 37 -18
32 -50 -4 -26 -2 -34 10 -34 16 0 28 41 20 71 -3 11 -16 22 -29 25 -33 8 -49
30 -28 38 11 4 14 13 11 27 -8 31 2 51 23 44 10 -3 45 1 77 9 63 16 143 19
143 5 0 -5 -4 -9 -10 -9 -5 0 -10 -6 -10 -14 0 -8 -7 -16 -15 -20 -8 -3 -15
-12 -15 -19 0 -19 -47 -28 -109 -20 -33 4 -51 2 -51 -5 0 -12 15 -17 73 -28
20 -3 40 -10 43 -15 7 -11 -17 -11 -35 0 -17 11 -53 2 -48 -13 2 -6 11 -10 21
-8 11 2 16 -4 16 -22 0 -30 30 -96 43 -96 5 0 6 10 3 23 -21 73 -21 77 12 77
36 0 49 15 32 35 -13 15 -6 35 12 35 13 0 58 47 58 61 0 5 23 8 55 5 43 -4 55
-1 55 10 0 8 -4 14 -9 14 -6 0 -22 12 -38 26 -21 19 -34 24 -58 20 -16 -3 -80
-8 -142 -12 l-111 -7 -94 38 c-51 21 -94 39 -96 40 -2 2 114 1 257 -2 237 -6
261 -5 261 10 0 15 -21 17 -182 17 -101 1 -196 2 -213 4 -16 2 -47 4 -68 4
-26 1 -37 6 -34 15 2 6 11 12 20 12 9 0 22 6 29 13 6 6 18 12 25 12 7 0 13 4
13 8 0 12 114 32 140 25 18 -5 21 -2 18 18 -2 19 -9 24 -30 24 -24 -1 -27 4
-32 47 l-7 48 -54 0 c-30 0 -55 4 -55 8 0 5 16 16 36 25 35 17 36 17 55 -7 18
-23 28 -25 107 -28 l87 -3 3 -52 c2 -36 7 -53 16 -53 10 0 13 15 12 53 l-1 52
144 0 c114 0 145 -3 149 -14 3 -10 -2 -12 -22 -7 -22 5 -26 3 -26 -14 0 -11 5
-20 10 -20 16 0 12 -37 -5 -44 -11 -4 -14 -13 -9 -31 6 -25 5 -25 -32 -19 -42
6 -146 -16 -197 -43 -45 -23 -24 -27 50 -10 119 28 141 26 154 -13 12 -34 29
-40 29 -10 0 12 7 20 16 20 13 0 15 7 11 34 -3 21 0 41 9 54 8 12 13 27 12 34
-2 7 3 12 10 10 7 -1 15 11 18 28 4 16 11 28 17 27 6 -1 12 3 12 8 1 6 5 18
10 28 7 17 8 17 20 0 15 -20 20 -18 29 12 8 29 -8 52 -27 37 -11 -10 -21 -10
-41 -1 -14 7 -26 16 -26 21 0 4 -16 8 -35 8 -48 0 -44 17 11 40 91 39 229 15
256 -45 15 -33 28 -32 28 3 0 30 -26 62 -51 62 -8 0 -29 9 -48 21 -25 15 -57
21 -130 26 -86 5 -99 3 -121 -15z m20 -37 c-30 -17 -40 -18 -40 -6 0 8 22 16
55 19 6 1 -1 -5 -15 -13z m-332 -97 c22 -18 13 -25 -34 -27 -26 0 -50 -4 -55
-6 -4 -3 -13 3 -18 14 -10 17 -7 20 17 23 52 7 77 6 90 -4z m391 -2 c15 -18
-48 -26 -201 -25 -100 0 -120 3 -140 19 -23 19 -22 19 154 19 133 0 179 -3
187 -13z m-535 -82 c30 -29 7 -88 -30 -81 -15 3 -28 -1 -33 -11 -15 -26 -29
-3 -27 45 1 51 -2 48 68 62 4 0 14 -6 22 -15z m289 -311 c-7 -2 -19 -2 -25 0
-7 3 -2 5 12 5 14 0 19 -2 13 -5z"/>
<path class="svg-animated__forest" d="M6885 1280 c-3 -6 -21 -10 -38 -10 -47 0 -77 -10 -77 -26 0 -19 -29
-18 -36 1 -8 21 -71 30 -111 16 -58 -21 -113 -63 -113 -85 1 -19 2 -19 11 -3
5 9 19 17 29 17 10 0 23 6 27 14 13 22 80 48 104 41 30 -10 58 -45 59 -72 0
-14 6 -23 15 -23 11 0 14 7 9 25 -4 15 -2 25 4 25 6 0 13 9 17 19 4 13 19 22
45 26 22 4 43 11 46 16 16 27 119 -28 136 -72 10 -27 28 -23 28 6 0 42 -136
116 -155 85z"/>
<path class="svg-animated__forest" d="M7946 1255 c-25 -23 -27 -30 -17 -51 11 -25 34 -34 25 -10 -6 15 28
56 47 56 16 0 5 25 -12 28 -9 1 -28 -9 -43 -23z"/>
<path class="svg-animated__forest" d="M4342 1249 c-10 -16 -19 -19 -39 -14 -18 4 -36 -1 -64 -20 -22 -14
-39 -29 -39 -35 0 -21 20 -19 44 5 18 18 36 25 62 25 22 0 46 7 57 18 10 9 31
17 46 17 46 0 38 20 -9 23 -37 2 -47 -1 -58 -19z"/>
<path class="svg-animated__town" d="M9502 1233 l3 -38 -50 -3 c-81 -4 -95 -9 -95 -37 0 -25 -1 -25 -97
-26 -129 -2 -163 -5 -190 -13 -18 -6 -23 -3 -23 9 0 24 -34 14 -38 -11 -2 -16
7 -27 33 -43 38 -22 65 -27 65 -12 0 5 -6 12 -12 14 -10 4 -9 8 2 16 19 14
257 15 265 1 4 -6 -9 -10 -32 -11 -172 -5 -204 -7 -210 -13 -17 -17 25 -23
125 -19 59 2 121 1 139 -2 l32 -6 3 -71 c2 -48 7 -73 16 -76 7 -2 16 5 19 16
5 20 13 21 81 13 29 -3 8 -20 -29 -23 -33 -2 -44 -8 -50 -26 -11 -28 17 -44
35 -20 13 18 106 34 106 19 0 -6 18 -11 40 -11 45 0 55 21 20 40 -29 16 -15
30 26 27 39 -2 40 -4 18 -28 -14 -16 -14 -18 5 -28 18 -10 8 -18 -92 -69 -85
-44 -113 -64 -115 -80 -3 -17 2 -22 20 -22 21 0 23 -5 23 -48 1 -26 4 -81 9
-122 4 -41 3 -70 -1 -63 -15 22 -60 23 -79 2 -15 -17 -18 -17 -28 -4 -9 13
-17 14 -46 4 -71 -24 -77 -56 -8 -45 29 5 40 3 44 -9 9 -22 51 -19 59 5 7 22
20 26 30 10 3 -5 31 -10 61 -10 35 0 70 -7 96 -20 23 -11 52 -20 64 -20 12 0
30 -7 39 -16 27 -27 89 -36 270 -37 l170 -1 3 29 c3 25 2 27 -11 16 -8 -6 -18
-8 -21 -3 -3 5 -27 7 -53 4 -26 -2 -94 -6 -151 -8 -56 -1 -107 -6 -112 -9 -6
-3 -10 -1 -10 4 0 6 -7 11 -15 11 -8 0 -15 6 -15 13 0 19 -72 46 -105 40 -18
-4 -33 1 -50 17 -16 15 -32 21 -49 18 -21 -4 -25 0 -32 31 -8 40 -8 40 -17 61
-3 8 -8 38 -10 65 -3 28 -8 57 -11 66 -8 18 66 23 483 33 155 4 212 15 166 32
-17 7 -272 1 -530 -12 l-120 -6 25 21 c14 11 28 21 32 21 7 0 134 60 168 79
82 46 106 51 246 51 135 0 173 7 160 28 -9 16 -326 3 -351 -14 -27 -19 -49
-17 -70 6 -10 11 -15 20 -10 20 4 0 3 6 -3 13 -8 9 3 12 49 11 36 0 64 5 70
12 8 10 17 10 37 2 33 -12 262 -12 275 1 15 15 -2 31 -32 31 -26 0 -29 4 -34
41 -6 43 -19 59 -49 59 -14 0 -18 -8 -18 -34 0 -19 5 -38 10 -41 6 -3 10 -13
10 -21 0 -11 -15 -14 -67 -14 -96 0 -117 13 -124 75 -6 55 -14 45 -24 -27 -3
-27 -12 -48 -18 -49 -92 -9 -94 -7 -98 70 -3 49 -1 55 21 63 13 5 47 8 75 7
27 -1 114 1 193 6 164 9 171 15 96 78 l-45 37 -144 0 c-106 0 -146 -3 -152
-13 -19 -31 -65 -47 -148 -53 -95 -8 -105 -3 -105 49 0 20 -5 27 -20 27 -18 0
-20 -6 -18 -37z m603 -30 c11 -6 17 -15 13 -18 -4 -4 -89 -9 -189 -12 -136 -5
-180 -3 -175 5 4 7 13 12 20 12 7 0 20 8 29 18 14 15 31 16 149 12 74 -3 142
-10 153 -17z m-510 -43 c50 0 96 -4 103 -8 19 -12 -238 -23 -260 -11 -31 17
-20 26 25 22 23 -2 83 -4 132 -3z m115 -57 c4 -4 10 -38 12 -75 l4 -68 -51 -1
c-27 -1 -88 -2 -135 -3 l-85 -1 0 55 c0 62 -8 80 -36 80 -10 0 -19 4 -19 8 0
5 37 9 82 11 45 1 84 4 86 5 6 7 135 -3 142 -11z m-99 -186 c-1 -12 -15 -9
-19 4 -3 6 1 10 8 8 6 -3 11 -8 11 -12z m140 -50 c-10 -9 -11 -8 -5 6 3 10 9
15 12 12 3 -3 0 -11 -7 -18z"/>
<path class="svg-animated__town" d="M9520 1021 c-38 -10 -34 -46 5 -46 55 -1 89 33 49 49 -18 7 -19 7
-54 -3z"/>
<path class="svg-animated__town" d="M8864 1226 c-7 -19 3 -36 22 -36 10 0 14 8 12 22 -4 26 -26 36 -34
14z"/>
<path class="svg-animated__town" d="M5220 1211 c0 -12 6 -21 16 -21 9 0 14 7 12 17 -5 25 -28 28 -28 4z"/>
<path class="svg-animated__town" d="M8790 1214 c0 -9 7 -14 17 -12 25 5 28 28 4 28 -12 0 -21 -6 -21 -16z"/>
<path class="svg-animated__forest" d="M3113 1208 c-26 -41 -33 -62 -23 -72 12 -12 13 -11 38 42 15 32 17
42 7 42 -8 0 -17 -6 -22 -12z"/>
<path class="svg-animated__forest" d="M3187 1193 c-8 -10 -17 -25 -19 -33 -2 -8 -10 -20 -18 -27 -23 -17
-4 -28 26 -14 19 8 25 17 21 31 -3 13 3 26 21 40 25 18 26 19 6 20 -11 0 -28
-8 -37 -17z"/>
<path class="svg-animated__town" d="M7628 1199 c-10 -5 -18 -18 -18 -28 0 -15 8 -18 43 -17 43 1 85 -20
70 -35 -4 -4 -59 -9 -120 -10 -94 -3 -116 -1 -129 13 -16 15 -14 17 20 23 20
4 52 5 71 3 29 -3 35 -1 35 15 0 18 -6 18 -87 12 -63 -5 -91 -11 -98 -22 -5
-9 -20 -28 -32 -43 -13 -15 -23 -37 -23 -49 0 -20 -5 -21 -120 -21 -101 0
-120 -2 -120 -15 0 -14 22 -15 184 -9 139 5 192 4 215 -6 17 -7 28 -16 25 -21
-3 -5 -95 -9 -205 -9 -152 0 -199 -3 -199 -12 0 -10 52 -13 225 -13 208 0 226
1 231 18 4 12 -4 25 -23 40 -15 12 -37 31 -48 42 l-20 20 109 3 c60 1 110 1
111 0 1 -2 5 -16 9 -32 6 -25 5 -28 -13 -23 -14 3 -27 -2 -39 -18 -14 -18 -22
-21 -36 -13 -10 5 -19 8 -21 6 -7 -7 7 -78 16 -78 4 0 22 15 40 33 18 17 39
30 48 29 8 -2 21 4 29 15 13 17 14 16 8 -9 -8 -34 3 -36 32 -5 28 29 27 35 0
39 -30 4 -51 74 -27 89 11 7 7 15 -21 39 -19 16 -42 30 -51 30 -9 0 -22 7 -29
15 -15 17 -19 18 -42 4z m-171 -101 c38 -35 30 -54 -21 -56 -55 -3 -64 9 -36
48 26 36 27 36 57 8z"/>
<path class="svg-animated__town" d="M8946 1183 c-4 -4 -15 -8 -24 -8 -11 0 -18 -10 -20 -27 -3 -27 -2
-28 42 -28 38 0 46 3 46 18 0 22 -33 55 -44 45z"/>
<path class="svg-animated__town" d="M6330 1125 c-7 -8 -10 -22 -6 -30 3 -9 0 -15 -8 -15 -18 0 -56 -43
-57 -66 0 -10 -3 -13 -6 -6 -8 19 -125 16 -162 -5 -35 -21 -40 -33 -11 -33 16
0 21 -9 26 -50 8 -64 34 -70 27 -6 -3 25 -1 46 5 50 6 3 36 3 67 0 56 -7 56
-7 53 -38 -3 -29 -6 -31 -45 -34 -25 -2 -43 -8 -43 -15 0 -13 59 -14 256 -2
91 6 123 5 129 -4 4 -7 0 -18 -8 -24 -19 -14 -26 -49 -12 -53 14 -5 55 58 55
84 0 17 6 22 25 22 18 0 25 5 25 20 0 21 38 37 66 26 8 -3 25 1 37 9 12 8 33
15 48 15 15 0 32 7 39 15 7 8 17 12 23 8 22 -13 102 -21 120 -11 12 6 23 6 33
-2 7 -7 24 -10 36 -7 27 8 58 -18 58 -48 0 -12 11 -32 25 -45 14 -13 25 -33
25 -45 0 -12 9 -30 20 -40 11 -10 20 -23 20 -30 0 -7 9 -22 20 -35 11 -13 20
-30 20 -39 0 -9 7 -24 15 -35 16 -21 9 -77 -12 -89 -17 -10 -17 -23 2 -30 7
-3 23 2 34 11 20 17 19 49 -4 147 -6 26 -3 32 24 48 24 14 35 16 52 7 15 -8
29 -8 51 -1 17 6 45 11 62 11 18 0 37 5 44 12 9 9 20 9 45 1 17 -6 53 -14 80
-18 37 -5 47 -3 47 8 0 14 -97 39 -145 38 -53 -2 -103 -10 -128 -20 -16 -6
-45 -8 -65 -5 -31 5 -42 1 -65 -20 l-27 -25 -13 32 c-8 18 -21 38 -30 46 -10
7 -17 26 -17 41 0 19 -8 33 -25 44 -14 9 -25 23 -25 30 0 7 -10 26 -22 41 -13
17 -18 30 -11 32 10 4 8 80 -4 113 -9 26 -21 -21 -16 -64 3 -31 1 -37 -10 -33
-8 3 -18 3 -22 -1 -8 -9 -148 -2 -185 8 -21 6 -32 4 -41 -6 -6 -8 -26 -14 -44
-14 -21 0 -35 -6 -39 -16 -3 -8 -16 -15 -28 -14 -59 5 -79 0 -88 -24 -8 -23
-19 -27 -109 -43 -41 -7 -51 6 -51 65 l0 42 53 1 c144 4 272 15 271 24 0 6
-24 21 -52 35 -28 14 -57 31 -64 38 -13 13 -129 15 -216 3 -46 -7 -56 -5 -65
11 -14 22 -40 23 -57 3z m40 -39 c0 -6 16 -27 35 -46 31 -30 35 -39 35 -87 0
-41 -3 -53 -15 -53 -16 0 -19 5 -30 54 -6 27 -7 28 -25 11 -10 -9 -20 -27 -22
-39 -2 -14 -11 -22 -30 -24 -25 -3 -27 0 -33 43 -5 28 -3 56 5 75 12 29 20 34
48 31 7 -1 12 10 12 29 0 18 4 29 10 25 6 -3 10 -12 10 -19z m303 -10 c15 -10
27 -22 27 -27 0 -5 -56 -9 -124 -9 -113 0 -126 2 -152 23 l-29 22 55 5 c111
10 194 5 223 -14z"/>
<path class="svg-animated__forest" d="M4165 1100 c-3 -6 -19 -8 -34 -5 -48 8 -71 -44 -50 -113 4 -14 -6
-22 -53 -41 -20 -7 -28 -18 -28 -35 0 -14 5 -28 11 -32 14 -8 29 15 22 34 -5
11 0 13 26 7 23 -5 32 -3 37 9 3 9 17 16 29 16 13 0 27 5 30 10 3 6 21 10 40
10 19 0 37 5 41 11 4 7 22 9 45 6 44 -6 53 12 19 36 -11 8 -18 20 -15 28 7 19
-4 33 -42 53 -36 18 -69 21 -78 6z m76 -39 l23 -18 -29 -27 c-19 -17 -35 -24
-47 -20 -12 3 -27 -1 -38 -11 -17 -16 -19 -15 -36 10 -13 21 -15 31 -6 50 12
26 27 32 37 15 10 -15 35 -12 35 5 0 21 33 19 61 -4z"/>
<path class="svg-animated__town" d="M5520 1095 c0 -11 11 -15 36 -15 31 0 35 2 24 15 -7 8 -23 15 -36 15
-15 0 -24 -6 -24 -15z"/>
<path class="svg-animated__town" d="M8400 1065 c0 -33 12 -46 25 -25 8 12 -5 60 -16 60 -5 0 -9 -16 -9
-35z"/>
<path class="svg-animated__town" d="M8522 1074 c2 -15 9 -29 16 -32 10 -3 13 4 10 24 -2 15 -9 29 -16 32
-10 3 -13 -4 -10 -24z"/>
<path class="svg-animated__town" d="M8624 1086 c-8 -21 3 -49 16 -41 5 3 10 15 10 25 0 25 -18 36 -26 16z"/>
<path class="svg-animated__town" d="M9961 1078 c-12 -19 -11 -23 5 -35 25 -18 54 8 38 34 -16 25 -28 25
-43 1z"/>
<path class="svg-animated__town" d="M4470 1083 c-111 -3 -140 -9 -140 -26 0 -9 29 -10 122 -5 68 3 126 7
131 7 4 1 7 8 7 16 0 8 -6 14 -12 13 -7 -1 -56 -3 -108 -5z"/>
<path class="svg-animated__town" d="M5333 1047 c-4 -7 -19 -18 -33 -24 l-25 -11 27 -7 c25 -6 27 -12 34
-76 10 -99 30 -86 25 16 l-3 78 39 -9 c21 -5 99 -9 174 -9 120 0 139 -2 158
-19 12 -11 21 -24 20 -30 -1 -6 -1 -32 0 -58 1 -35 5 -48 15 -48 9 0 16 12 18
32 3 29 9 34 71 59 l68 28 11 -29 c15 -44 28 -36 28 16 0 53 8 52 -105 10 -38
-14 -73 -26 -77 -26 -5 0 -8 13 -8 30 0 37 -37 58 -129 72 -109 17 -299 20
-308 5z"/>
<path class="svg-animated__town" d="M9099 1029 c-12 -8 -11 -11 3 -22 18 -14 20 -24 19 -94 0 -32 3 -43
14 -43 9 0 15 10 15 23 1 12 2 43 4 69 3 40 0 49 -18 62 -15 9 -27 11 -37 5z"/>
<path class="svg-animated__town" d="M8525 994 c-33 -14 -82 -28 -108 -31 -46 -6 -48 -7 -42 -32 10 -40
22 -47 45 -26 11 10 20 14 20 10 0 -5 5 -4 12 3 7 7 20 12 30 12 10 0 18 6 18
13 0 8 18 20 40 27 42 14 67 34 53 43 -4 3 -35 -6 -68 -19z"/>
<path class="svg-animated__town" d="M4977 1003 c-10 -10 -8 -43 2 -43 5 0 11 5 13 12 3 7 9 8 19 3 17
-11 129 -15 129 -5 0 15 -50 32 -79 27 -17 -4 -33 -2 -36 3 -7 11 -38 13 -48
3z"/>
<path class="svg-animated__town" d="M5249 991 c-4 -73 -2 -101 6 -103 6 -2 11 11 13 28 3 26 7 31 23 27
20 -6 23 4 13 31 -5 13 -9 14 -20 5 -11 -9 -14 -8 -14 4 0 24 -20 31 -21 8z"/>
<path class="svg-animated__town" d="M5466 973 c-8 -21 10 -41 24 -27 11 11 3 44 -10 44 -4 0 -11 -8 -14
-17z"/>
<path class="svg-animated__town" d="M5545 979 c-4 -5 -3 -19 1 -31 6 -21 7 -21 20 -3 8 10 14 22 14 26 0
12 -29 19 -35 8z"/>
<path class="svg-animated__town" d="M7811 971 c-6 -10 -7 -21 -4 -25 7 -7 43 23 43 36 0 16 -29 8 -39
-11z"/>
<path class="svg-animated__town" d="M5624 965 c-3 -8 -3 -19 1 -25 11 -18 25 -11 25 15 0 27 -17 34 -26
10z"/>
<path class="svg-animated__town" d="M5687 974 c-9 -9 4 -35 14 -28 5 3 9 12 9 20 0 14 -12 19 -23 8z"/>
<path class="svg-animated__town" d="M7842 947 c-7 -7 -9 -29 -6 -49 4 -21 2 -38 -5 -42 -15 -10 -14 -26
2 -26 18 1 70 77 57 85 -6 4 -8 15 -5 26 5 14 2 19 -13 19 -11 0 -24 -6 -30
-13z"/>
<path class="svg-animated__town" d="M5073 927 c-100 -12 -97 -32 3 -24 42 3 81 10 86 15 16 16 -13 18
-89 9z"/>
<path class="svg-animated__town" d="M5290 910 c0 -11 5 -20 10 -20 6 0 10 9 10 20 0 11 -4 20 -10 20 -5
0 -10 -9 -10 -20z"/>
<path class="svg-animated__town" d="M6041 912 c-8 -14 -19 -18 -50 -15 -22 1 -43 -1 -46 -7 -9 -15 29
-29 71 -27 30 2 40 8 43 22 2 11 8 26 13 33 8 9 6 12 -5 12 -9 0 -21 -8 -26
-18z"/>
<path class="svg-animated__town" d="M7449 914 c-10 -12 -23 -14 -51 -10 -29 5 -38 3 -38 -8 0 -19 53 -30
79 -17 11 6 38 11 61 11 29 0 40 4 37 13 -2 6 -11 12 -20 12 -8 0 -19 4 -23 8
-12 12 -31 8 -45 -9z"/>
<path class="svg-animated__town" d="M9204 919 c-13 -21 12 -29 92 -29 68 0 84 3 84 15 0 11 -13 15 -52
16 -29 1 -68 2 -86 4 -18 1 -35 -1 -38 -6z"/>
<path class="svg-animated__town" d="M4898 913 c-43 -7 -33 -23 13 -23 27 0 39 4 37 12 -5 14 -14 16 -50
11z"/>
<path class="svg-animated__town" d="M5485 891 c-6 -5 -28 -11 -50 -13 -37 -3 -40 -5 -37 -30 4 -31 -1
-33 -44 -19 -59 19 -132 19 -152 1 -18 -17 -22 -17 -81 3 l-63 20 -64 -32
c-52 -26 -72 -32 -109 -28 -36 4 -48 1 -59 -14 -8 -12 -30 -21 -62 -25 -34 -4
-45 -3 -35 4 8 6 20 8 28 5 7 -3 13 1 13 10 0 21 -194 23 -230 2 -14 -8 -37
-20 -52 -27 -16 -7 -28 -18 -28 -25 0 -18 13 -16 53 7 l35 21 27 -26 c32 -29
38 -30 55 -10 9 11 33 15 86 15 79 0 88 -8 62 -49 -13 -22 -4 -55 15 -49 6 3
13 21 15 42 2 23 10 41 23 49 10 6 19 20 19 30 0 28 49 13 77 -22 22 -28 24
-28 118 -27 71 2 99 6 105 16 5 8 7 16 5 18 -7 8 -61 10 -70 3 -5 -4 -23 -7
-40 -6 -16 1 -47 3 -67 3 -54 3 -47 22 17 55 56 28 84 33 101 19 5 -5 29 -14
54 -21 51 -14 130 -57 130 -71 0 -4 -28 -10 -62 -13 -35 -2 -81 -11 -103 -20
l-40 -15 0 -56 c0 -32 4 -55 10 -53 6 1 10 19 10 39 0 43 7 51 58 68 49 15
442 19 457 4 14 -14 -163 -27 -241 -18 -54 6 -106 -7 -95 -25 3 -4 93 -6 200
-4 188 3 196 2 196 -16 0 -18 -9 -19 -122 -21 -171 -3 -181 -3 -185 -17 -3 -7
-16 -13 -29 -13 -18 0 -24 -5 -24 -22 0 -23 -1 -23 -120 -20 -103 3 -120 1
-120 -12 0 -13 17 -16 103 -17 86 0 202 -9 282 -21 12 -2 20 3 20 12 0 14 -67
32 -118 31 -15 0 -14 4 8 20 28 23 171 43 191 28 6 -5 14 -6 17 -2 10 10 152
3 155 -8 2 -5 14 -9 27 -9 24 0 35 -17 35 -54 0 -20 4 -22 58 -19 31 1 71 2
87 2 17 -1 37 -1 45 0 8 0 33 0 55 0 40 -1 79 -1 145 0 19 1 58 -1 85 -4 74
-7 296 -8 303 -1 15 16 -21 21 -146 23 -76 2 -168 3 -207 4 -38 1 -83 0 -100
-1 -42 -3 -234 15 -242 24 -4 3 2 12 12 20 10 7 15 18 11 24 -4 7 -1 12 7 12
8 0 17 9 20 20 3 11 11 19 19 18 7 -2 13 4 13 12 0 44 -70 5 -102 -57 -11 -22
-11 -29 1 -48 14 -21 13 -22 -10 -17 -18 3 -27 13 -31 33 -5 26 -18 35 -46 30
-4 -1 -10 6 -13 14 -4 8 -17 15 -30 15 -20 0 -24 5 -24 31 0 26 3 29 20 24 27
-9 60 3 60 21 0 16 -23 18 -50 4 -12 -6 -27 -7 -37 -2 -10 5 -32 17 -50 26
-21 11 -57 16 -114 16 -45 0 -80 2 -77 5 8 8 244 75 264 75 9 0 68 -20 130
-45 125 -50 124 -50 124 -32 0 8 -48 32 -112 57 -62 23 -117 47 -122 51 -17
15 -101 10 -159 -10 -31 -11 -77 -23 -102 -26 -41 -7 -45 -5 -46 14 -1 11 -2
27 -3 34 -2 20 32 24 167 19 113 -4 127 -3 127 12 0 19 1 18 -112 16 -58 -1
-88 2 -88 9 0 13 -23 14 -35 2z m-119 -96 c44 -18 37 -32 -22 -41 -33 -5 -49
-3 -62 9 -9 8 -27 18 -39 21 -13 4 -23 14 -23 23 0 13 9 15 56 9 30 -3 71 -13
90 -21z m-676 -35 c18 -6 7 -8 -42 -9 -39 -1 -68 3 -68 9 0 12 74 12 110 0z
m707 -35 c0 -11 -11 -15 -41 -14 l-41 1 30 13 c39 18 52 18 52 0z"/>
<path class="svg-animated__town" d="M5900 880 c0 -13 5 -20 13 -17 6 2 12 10 12 17 0 7 -6 15 -12 18 -8
2 -13 -5 -13 -18z"/>
<path class="svg-animated__town" d="M7275 890 c-25 -10 -50 -38 -42 -47 4 -3 13 -1 20 6 8 6 22 8 31 5
16 -6 45 19 46 39 0 9 -29 8 -55 -3z"/>
<path class="svg-animated__town" d="M4310 871 c-26 -4 -36 -12 -38 -29 -2 -12 -7 -20 -12 -17 -5 3 -15
-3 -22 -15 -7 -11 -18 -20 -25 -20 -8 0 -13 -14 -13 -35 0 -39 -2 -40 -33 -24
-35 18 -67 51 -67 69 0 33 -57 33 -124 1 -34 -16 -98 -41 -144 -57 -82 -28
-84 -29 -98 -10 -24 33 -17 38 49 36 83 -3 93 -2 81 9 -9 10 -72 19 -136 20
-27 1 -38 5 -38 16 0 12 -19 15 -115 15 -102 0 -117 2 -135 20 -11 11 -26 20
-33 20 -8 0 -22 -9 -32 -20 -16 -18 -32 -20 -129 -21 -61 -1 -151 -4 -201 -8
l-90 -6 -5 -53 c-8 -77 -24 -85 -166 -83 -69 1 -114 -2 -114 -8 0 -11 80 -21
153 -19 55 2 68 -7 42 -26 -17 -12 -17 -15 10 -50 15 -20 29 -36 32 -36 2 0 1
16 -3 35 -4 23 -2 35 5 35 6 0 11 6 11 14 0 8 11 28 25 44 14 17 25 35 25 41
0 6 11 16 25 23 21 10 29 7 63 -23 22 -19 42 -42 45 -51 4 -13 15 -18 40 -18
30 0 35 4 43 33 7 22 17 33 32 35 12 2 22 10 22 18 0 19 26 18 34 -2 10 -27
51 -13 54 19 3 22 7 27 22 22 14 -4 23 2 35 25 9 17 13 35 10 40 -3 6 0 10 8
10 7 0 20 -11 27 -25 7 -14 17 -25 22 -25 4 0 8 -12 8 -26 0 -34 24 -26 28 9
3 27 4 27 86 27 89 0 96 -3 126 -64 8 -16 25 -33 37 -39 32 -14 35 -37 21
-132 -2 -12 4 -21 14 -23 15 -3 18 8 20 79 l3 82 50 17 c125 43 155 51 175 45
15 -5 26 -1 35 12 14 17 14 17 15 -5 0 -12 8 -26 18 -29 9 -4 41 -22 70 -40
40 -26 52 -39 52 -58 0 -14 -6 -25 -12 -25 -7 -1 -23 -9 -36 -20 -28 -24 -27
-73 1 -78 15 -3 18 0 12 18 -10 31 19 49 67 42 24 -3 38 -1 38 6 0 8 11 9 32
5 22 -4 34 -2 42 10 22 29 128 23 140 -9 9 -23 26 -7 26 25 0 25 -5 29 -36 34
-19 3 -45 1 -58 -4 -13 -6 -35 -7 -54 -2 -31 8 -32 8 -17 37 17 32 9 50 -20
44 -12 -2 -18 -15 -21 -40 -2 -21 1 -38 6 -38 6 0 10 -7 10 -16 0 -13 -7 -15
-30 -11 -16 4 -32 2 -35 -3 -11 -17 -25 0 -25 29 0 16 -7 34 -15 41 -10 9 -12
17 -6 23 5 5 7 15 5 22 -3 7 4 15 15 18 12 3 21 12 21 21 0 9 5 16 11 16 5 0
15 14 20 30 10 27 15 30 51 30 30 0 39 -3 35 -14 -10 -26 13 -36 52 -21 52 21
154 35 249 35 48 0 82 4 82 10 0 16 -257 12 -304 -5 -34 -12 -41 -12 -50 0
-14 18 -52 24 -96 16z m-995 -86 c-3 -8 -7 -22 -10 -31 -4 -13 -8 -14 -19 -5
-24 20 -54 20 -72 0 -9 -10 -23 -19 -30 -19 -7 0 -16 -16 -20 -35 -3 -19 -8
-35 -10 -35 -2 0 -31 27 -66 61 -42 41 -67 59 -80 56 -11 -3 -18 0 -18 9 0 11
30 14 165 14 141 0 164 -2 160 -15z"/>
<path class="svg-animated__town" d="M5810 861 c0 -12 68 -27 77 -17 10 10 0 15 -40 21 -22 4 -37 2 -37
-4z"/>
<path class="svg-animated__town" d="M9372 862 c-18 -2 -36 -10 -39 -18 -3 -8 -18 -14 -33 -14 -48 0 -60
-9 -60 -46 0 -24 5 -34 16 -34 19 0 49 28 40 38 -8 7 69 32 101 32 12 0 25 5
29 11 11 18 -19 35 -54 31z"/>
<path class="svg-animated__town" d="M1935 840 c-11 -5 -46 -19 -77 -31 -36 -13 -58 -26 -58 -36 0 -10 5
-13 18 -8 9 4 31 12 47 17 17 5 44 16 62 24 40 18 67 18 104 -1 34 -18 32 -27
-11 -45 -65 -27 -11 -63 60 -40 57 19 66 26 52 42 -9 11 -5 16 21 26 39 13
173 25 199 17 37 -12 16 -25 -41 -25 -59 0 -124 -22 -180 -62 -43 -31 -12 -33
47 -3 77 38 230 50 307 24 112 -38 115 -41 115 -145 0 -69 -5 -74 -70 -74 -28
0 -42 6 -53 23 l-16 22 -19 -24 c-16 -20 -22 -22 -40 -12 -12 6 -25 10 -29 9
-4 -1 -18 3 -29 10 -55 30 -180 23 -178 -11 3 -33 -14 -16 -20 21 -10 54 -16
72 -25 72 -5 0 -40 18 -79 41 -64 37 -80 41 -169 49 -54 5 -105 12 -114 15
-10 4 -35 -7 -63 -27 -39 -27 -56 -33 -101 -33 -46 0 -55 3 -59 20 -3 11 -28
36 -56 54 -28 19 -54 40 -58 46 -9 16 -75 26 -93 14 -12 -8 -12 -10 1 -19 8
-5 24 -10 35 -10 11 0 36 -14 55 -30 l35 -29 -90 -3 c-49 -1 -132 -1 -182 1
-80 2 -93 1 -93 -13 0 -17 57 -23 169 -17 40 2 52 0 46 -9 -4 -7 -9 -22 -10
-34 -1 -11 -3 -24 -4 -28 0 -5 -20 -8 -44 -8 -50 0 -83 -19 -74 -44 5 -12 0
-16 -22 -16 -29 0 -49 -24 -31 -35 6 -4 10 -11 10 -16 0 -6 -4 -8 -8 -5 -5 3
-89 6 -187 7 -172 2 -180 3 -217 27 -26 18 -38 33 -38 49 0 21 -4 23 -55 23
-41 0 -57 -4 -62 -16 -8 -22 13 -42 29 -26 7 7 21 12 31 12 15 0 18 -5 15 -25
-6 -30 13 -49 41 -40 15 4 26 -2 42 -25 23 -30 44 -39 51 -20 4 13 8 13 153 6
61 -2 125 -5 143 -5 25 -1 35 -7 42 -27 8 -21 7 -29 -6 -39 -27 -19 -5 -24
132 -30 71 -2 155 -7 187 -11 48 -5 57 -3 57 10 0 9 -3 16 -7 17 -157 18 -220
22 -255 16 -43 -8 -68 17 -68 68 0 40 2 44 30 50 17 4 31 12 31 18 1 7 2 19 3
27 0 8 7 15 14 14 6 -1 37 -2 67 -2 52 -2 55 -3 50 -25 -9 -36 10 -74 42 -82
22 -5 31 -2 48 19 12 14 29 26 40 26 10 0 26 7 36 16 16 14 20 14 43 -1 17
-11 35 -15 51 -11 17 4 31 1 42 -9 13 -14 17 -14 32 -2 26 24 101 26 139 5 66
-36 86 -14 24 27 -48 32 -132 37 -162 10 -29 -26 -39 -9 -31 46 8 49 17 62 64
92 24 16 40 17 103 12 41 -4 72 -10 69 -13 -3 -3 -35 -15 -72 -27 -63 -21 -96
-45 -81 -61 4 -3 31 5 60 19 29 13 83 32 120 41 74 18 77 18 154 -35 36 -25
42 -34 46 -74 3 -25 8 -48 11 -51 3 -3 68 -4 144 -2 76 1 222 2 325 2 l186 -1
-3 38 c-2 22 1 39 6 39 16 0 10 26 -11 45 -17 15 -24 16 -45 7 -20 -9 -30 -9
-45 0 -15 10 -22 9 -37 -4 -18 -16 -18 -15 -20 33 -2 62 -11 73 -81 99 -32 12
-93 39 -137 61 -79 38 -81 39 -126 25 -25 -8 -52 -10 -60 -6 -8 5 -35 1 -66
-10 l-51 -18 -39 24 c-39 24 -92 30 -128 14z m-437 -163 c8 -7 10 -22 6 -46
-4 -20 -8 -45 -10 -55 -4 -22 -21 -36 -45 -36 -9 0 -24 -9 -34 -20 -10 -11
-22 -20 -27 -20 -12 0 -10 27 5 51 10 17 9 22 -13 39 -14 11 -31 20 -39 20 -9
0 -11 7 -7 23 3 12 6 30 6 40 0 16 8 18 73 16 39 -2 78 -7 85 -12z m120 -67
c7 -63 -56 -78 -77 -18 -14 40 -7 50 37 46 31 -3 37 -7 40 -28z m1137 -38 c11
-29 -25 -53 -74 -50 -40 3 -46 6 -49 27 -5 31 5 36 67 37 35 0 52 -4 56 -14z
m-477 -49 c-10 -2 -26 -2 -35 0 -10 3 -2 5 17 5 19 0 27 -2 18 -5z"/>
<path class="svg-animated__town" d="M6100 839 c0 -7 -10 -9 -25 -5 -14 4 -31 3 -38 -1 -7 -4 -21 -8 -32
-8 -11 0 -21 -7 -23 -15 -3 -18 53 -27 63 -10 3 5 17 10 30 10 13 0 30 3 39 6
20 8 21 34 1 34 -8 0 -15 -5 -15 -11z"/>
<path class="svg-animated__town" d="M6283 833 c-203 -5 -185 -23 22 -23 140 0 165 2 165 15 0 10 -8 14
-22 13 -13 -1 -87 -4 -165 -5z"/>
<path class="svg-animated__town" d="M8616 812 c-32 -19 -35 -32 -12 -47 11 -7 24 -3 46 13 l30 22 -3 -22
c-1 -15 3 -23 13 -23 19 0 39 -24 40 -47 0 -23 28 -48 45 -42 11 5 12 11 4 25
-15 28 -5 37 49 44 26 4 57 11 69 17 11 6 26 7 32 4 11 -7 51 10 51 22 0 18
-140 3 -187 -20 -36 -17 -71 -2 -81 35 -7 26 -13 32 -38 34 -16 1 -42 -6 -58
-15z"/>
<path class="svg-animated__town" d="M9127 808 c-6 -21 -2 -36 7 -27 10 11 16 49 8 49 -5 0 -12 -10 -15
-22z"/>
<path class="svg-animated__town" d="M1259 816 c-10 -10 -472 -28 -705 -27 l-251 1 1 -108 c1 -59 5 -112
9 -119 4 -7 -1 -14 -13 -18 -11 -4 -18 -10 -15 -14 2 -5 -23 -9 -57 -10 -34
-1 -67 -6 -73 -11 -7 -6 -20 -8 -29 -4 -9 3 -28 3 -43 -1 -22 -5 -24 -8 -12
-19 11 -10 37 -11 119 -5 178 14 230 21 230 30 0 5 6 9 13 9 26 0 122 33 110
37 -7 3 -13 11 -13 19 0 18 -19 18 -26 1 -5 -14 -81 -21 -124 -12 -21 5 -28
15 -38 57 -6 28 -10 54 -7 57 2 4 32 4 67 0 36 -5 117 -4 188 2 69 6 154 10
190 8 36 -1 81 -3 100 -3 32 -1 35 -4 35 -31 0 -20 6 -31 18 -33 22 -4 34 25
19 48 -9 15 -7 17 16 14 38 -4 72 6 72 21 0 10 -65 12 -322 9 -190 -2 -328 1
-339 6 -12 7 -19 6 -22 -3 -3 -6 -6 -2 -6 9 -1 12 6 24 14 28 8 3 124 6 258 7
133 0 271 3 307 5 36 2 129 7 207 10 144 7 182 15 153 34 -17 11 -24 12 -31 6z"/>
<path class="svg-animated__town" d="M5882 798 c5 -15 37 -18 41 -3 1 6 -9 12 -22 13 -16 3 -22 -1 -19
-10z"/>
<path class="svg-animated__town" d="M5044 789 c-8 -14 11 -33 25 -25 16 10 13 36 -3 36 -8 0 -18 -5 -22
-11z"/>
<path class="svg-animated__forest" d="M6120 769 c0 -7 -9 -9 -24 -5 -26 6 -86 -19 -86 -37 0 -7 -3 -22 -6
-34 -5 -17 -2 -23 10 -23 10 0 16 9 16 25 0 16 4 23 13 19 8 -3 19 2 26 10 7
8 19 12 27 9 9 -3 25 -1 37 5 39 19 97 23 97 6 0 -8 10 -14 25 -14 18 0 25 -5
25 -19 0 -10 16 -35 35 -56 27 -30 35 -48 37 -84 2 -33 7 -46 18 -46 11 0 14
9 11 40 -1 21 -7 49 -12 62 -8 22 -6 23 37 23 31 0 54 -7 71 -20 14 -11 34
-20 44 -20 14 0 19 -7 19 -29 0 -21 8 -36 30 -51 18 -13 30 -30 30 -43 0 -30
49 -82 63 -68 8 8 4 17 -11 34 -12 13 -22 25 -22 28 0 2 22 4 49 4 32 0 55 -6
68 -17 26 -24 113 -25 113 -2 0 13 -7 15 -34 10 -28 -5 -40 -2 -66 21 -30 25
-35 26 -75 15 -42 -11 -44 -11 -78 23 -18 18 -38 49 -43 67 -8 27 -15 34 -42
36 -33 3 -41 19 -20 40 8 8 8 15 -3 28 -12 14 -10 19 15 39 32 26 22 40 -15
22 -14 -8 -25 -23 -27 -39 -4 -38 -23 -49 -82 -50 -56 0 -82 15 -78 45 5 33
-46 55 -124 56 -44 1 -68 -3 -68 -10z"/>
<path class="svg-animated__town" d="M7922 771 c-23 -4 -48 -13 -54 -19 -7 -7 -12 -45 -13 -90 -1 -42 -5
-83 -9 -90 -11 -19 2 -28 22 -15 10 6 17 24 18 43 0 19 5 35 11 37 7 3 10 10
7 16 -4 13 39 37 67 37 10 0 21 5 24 10 4 6 21 9 38 8 35 -3 37 -1 37 40 0 28
-2 29 -52 29 -29 0 -72 -2 -96 -6z m118 -25 c0 -9 -8 -12 -27 -8 -16 3 -30 -1
-37 -9 -6 -8 -30 -14 -53 -15 -35 -1 -43 3 -43 17 0 14 10 19 48 22 102 8 112
7 112 -7z"/>
<path class="svg-animated__forest" d="M9057 773 c-15 -14 -6 -23 22 -23 24 0 40 -12 86 -67 35 -43 54 -75
51 -85 -2 -10 0 -21 5 -24 6 -3 5 -11 -2 -20 -15 -18 -5 -44 17 -44 16 0 16
-1 0 -19 -27 -30 7 -36 41 -7 27 23 27 25 10 44 -10 11 -19 35 -20 54 -3 37
-60 118 -85 118 -7 0 -12 6 -9 13 6 19 -53 67 -83 67 -15 0 -30 -3 -33 -7z"/>
<path class="svg-animated__town" d="M2653 743 c-13 -3 -23 -9 -23 -14 0 -6 49 -8 123 -7 148 4 164 23 19
24 -53 0 -107 -1 -119 -3z"/>
<path class="svg-animated__town" d="M3980 725 c0 -29 3 -30 24 -9 18 17 13 34 -10 34 -8 0 -14 -10 -14
-25z"/>
<path class="svg-animated__town" d="M3520 720 c-8 -5 -27 -10 -42 -10 -16 0 -28 -4 -28 -9 0 -4 -11 -20
-26 -36 -27 -30 -31 -85 -5 -93 11 -4 13 2 8 28 -6 26 -3 33 12 37 11 3 21 13
24 24 3 11 14 19 25 19 11 0 33 8 49 17 30 16 30 16 66 -23 20 -21 37 -45 37
-52 0 -24 25 -6 28 20 2 19 -2 28 -18 33 -11 4 -28 17 -36 31 -17 26 -65 33
-94 14z"/>
<path class="svg-animated__town" d="M7430 713 c0 -12 -8 -23 -20 -26 -33 -9 -23 -97 11 -97 23 0 23 4 3
34 -9 15 -11 27 -5 30 5 4 12 2 16 -4 15 -24 26 -8 19 28 -7 43 -24 67 -24 35z"/>
<path class="svg-animated__town" d="M2270 695 c10 -12 27 -15 64 -13 72 4 63 22 -13 26 -58 3 -63 1 -51
-13z"/>
<path class="svg-animated__town" d="M3983 693 c-13 -5 -18 -35 -7 -46 11 -11 34 5 34 23 0 22 -10 29 -27
23z"/>
<path class="svg-animated__town" d="M2170 675 c-13 -16 -7 -45 9 -45 9 0 31 31 31 43 0 13 -30 14 -40 2z"/>
<path class="svg-animated__town" d="M2460 680 c-18 -12 -3 -43 24 -48 14 -3 17 2 14 24 -3 31 -16 38 -38
24z"/>
<path class="svg-animated__town" d="M5823 675 c-3 -9 -3 -19 1 -22 9 -10 58 16 51 27 -10 16 -45 12 -52
-5z"/>
<path class="svg-animated__town" d="M3295 663 c-22 -8 -73 -20 -113 -28 -40 -8 -77 -17 -82 -20 -6 -4 -9
-27 -7 -53 2 -39 6 -47 22 -47 13 0 19 5 16 15 -15 56 -10 62 69 80 41 9 85
20 98 24 19 6 22 4 22 -18 0 -32 -13 -40 -72 -38 -26 0 -48 -3 -48 -9 0 -5 -8
-9 -19 -9 -24 0 -38 -19 -35 -48 1 -13 -5 -26 -12 -29 -21 -8 -17 -33 6 -33
21 0 40 27 40 58 0 23 41 41 84 38 20 -2 33 -10 40 -27 l10 -24 4 30 c2 16 11
34 19 41 10 6 14 18 10 28 -4 9 -2 27 3 40 13 35 -6 45 -55 29z"/>
<path class="svg-animated__town" d="M2297 663 c-10 -18 1 -58 16 -61 13 -3 17 4 17 32 0 25 -5 36 -14 36
-8 0 -17 -3 -19 -7z"/>
<path class="svg-animated__town" d="M3699 653 c-4 -35 -7 -51 -13 -70 -6 -18 -4 -23 11 -23 15 0 18 9 20
50 1 28 -2 50 -7 50 -6 0 -10 -3 -11 -7z"/>
<path class="svg-animated__town" d="M7704 649 c-3 -6 -17 -8 -30 -5 -17 5 -24 2 -24 -8 0 -23 36 -39 58
-27 13 7 23 6 30 -1 20 -20 36 5 20 31 -14 22 -43 28 -54 10z"/>
<path class="svg-animated__town" d="M4668 618 c-2 -15 -10 -23 -22 -23 -27 0 -32 -22 -11 -45 18 -20 18
-19 42 5 14 13 22 29 18 35 -9 15 12 12 39 -6 14 -9 27 -11 30 -5 3 5 15 7 26
4 29 -8 25 18 -7 41 -24 18 -27 18 -38 3 -10 -15 -14 -15 -31 -2 -27 21 -42
18 -46 -7z"/>
<path class="svg-animated__town" d="M7780 594 c0 -45 24 -42 28 4 2 24 -1 32 -12 32 -12 0 -16 -10 -16
-36z"/>
<path class="svg-animated__town" d="M7574 602 c-7 -23 -19 -29 -29 -12 -13 21 -25 -3 -19 -38 8 -46 24
-66 24 -31 0 20 5 25 23 25 17 -1 23 5 25 28 5 37 -16 60 -24 28z"/>
<path class="svg-animated__town" d="M3580 560 c-8 -5 -41 -10 -72 -10 -53 0 -58 -2 -58 -21 0 -12 -7 -27
-17 -34 -9 -7 -14 -19 -10 -29 8 -19 37 -22 37 -2 0 7 9 16 20 19 11 3 20 12
20 21 0 12 10 16 35 16 19 0 44 6 55 12 16 10 24 10 40 0 11 -6 31 -12 46 -12
17 0 28 -6 31 -20 7 -26 23 -26 23 -1 0 22 -10 30 -60 49 -53 21 -74 23 -90
12z"/>
<path class="svg-animated__town" d="M2958 530 c-20 -21 -37 -30 -60 -30 -31 -1 -32 -1 -14 -15 32 -24 75
-19 86 10 9 24 40 36 40 15 0 -5 7 -10 15 -10 22 0 18 27 -7 44 -29 21 -28 21
-60 -14z"/>
<path class="svg-animated__town" d="M4824 540 c-5 -5 -55 -13 -111 -16 -77 -5 -100 -10 -96 -20 4 -11 18
-13 93 -14 56 0 101 7 111 17 8 8 18 9 30 3 23 -13 35 5 19 25 -14 17 -32 19
-46 5z"/>
<path class="svg-animated__town" d="M2800 522 c0 -26 37 -59 51 -45 8 8 4 18 -12 37 -27 31 -39 33 -39 8z"/>
<path class="svg-animated__town" d="M4497 529 c-10 -6 -78 -12 -150 -13 -127 -3 -172 -10 -162 -26 8 -13
288 -6 313 9 18 9 27 10 38 1 14 -12 44 -7 44 7 0 8 -47 33 -59 33 -4 0 -14
-5 -24 -11z"/>
<path class="svg-animated__town" d="M3770 513 c0 -8 49 -13 178 -15 97 -2 179 -2 182 0 3 2 -3 10 -14 17
-24 18 -346 16 -346 -2z"/>
<path class="svg-animated__town" d="M4989 494 c-7 -8 -22 -14 -33 -12 -12 1 -27 -1 -35 -6 -8 -5 -16 -3
-22 5 -11 19 -25 3 -34 -38 -5 -26 -3 -33 9 -33 9 0 16 5 16 10 0 6 9 10 19
10 10 0 22 7 25 16 3 8 11 12 16 9 20 -12 70 6 70 25 0 26 -15 33 -31 14z"/>
<path class="svg-animated__town" d="M7246 491 c-22 -3 -41 -12 -44 -18 -4 -15 23 -16 88 -3 40 7 49 6 77
-16 31 -23 63 -32 63 -16 0 4 -16 19 -34 35 -36 28 -64 31 -150 18z"/>
<path class="svg-animated__town" d="M5588 483 c-43 -11 -11 -21 67 -21 58 1 84 5 82 12 -4 11 -117 18
-149 9z"/>
<path class="svg-animated__town" d="M8932 468 c-7 -7 -12 -8 -12 -4 0 5 -11 1 -24 -7 -19 -13 -44 -15
-113 -12 -112 4 -215 -4 -210 -18 6 -19 61 -27 130 -19 37 5 94 5 125 1 38 -5
61 -4 70 4 8 6 39 10 70 10 34 -1 60 3 64 10 6 9 8 9 8 0 0 -16 71 -18 86 -3
8 8 25 8 55 1 54 -13 89 -14 89 -3 0 13 -76 45 -92 40 -7 -3 -25 -2 -39 3 -16
4 -31 3 -37 -3 -7 -7 -22 -6 -46 2 -29 9 -40 9 -52 -1 -11 -9 -18 -9 -26 -1
-15 15 -31 15 -46 0z"/>
<path class="svg-animated__town" d="M4792 458 c-15 -15 -16 -38 -2 -38 12 0 23 25 18 40 -2 7 -7 7 -16
-2z"/>
<path class="svg-animated__town" d="M6910 461 c0 -6 5 -13 10 -16 6 -3 10 1 10 9 0 9 -4 16 -10 16 -5 0
-10 -4 -10 -9z"/>
<path class="svg-animated__town" d="M1349 458 c-8 -18 -3 -51 8 -55 14 -5 32 12 33 29 0 7 -39 31 -41 26z"/>
<path class="svg-animated__town" d="M8429 445 c-11 -12 -42 -17 -108 -19 -51 -2 -98 -9 -104 -15 -17 -17
17 -24 86 -17 34 3 97 6 139 5 43 0 82 3 88 6 11 7 -53 55 -73 55 -7 0 -20 -7
-28 -15z"/>
<path class="svg-animated__town" d="M1848 436 c-18 -14 -24 -36 -10 -36 4 0 13 5 19 11 9 9 19 6 42 -10
31 -22 61 -25 68 -6 2 6 -18 20 -44 33 -55 26 -53 25 -75 8z"/>
<path class="svg-animated__town" d="M7770 422 c0 -11 9 -27 19 -36 16 -15 22 -15 40 -4 26 16 27 27 4 34
-10 3 -26 10 -35 15 -25 13 -28 12 -28 -9z"/>
<path class="svg-animated__town" d="M4637 423 c-16 -15 -5 -23 33 -23 43 0 54 14 18 24 -30 8 -43 7 -51
-1z"/>
<path class="svg-animated__town" d="M6697 423 c-4 -3 0 -18 7 -32 8 -14 17 -34 20 -44 3 -10 13 -17 23
-15 10 1 24 -1 31 -5 24 -16 30 4 11 40 -22 43 -35 45 -31 5 2 -25 1 -24 -18
10 -21 39 -34 51 -43 41z"/>
<path class="svg-animated__town" d="M8125 420 c-3 -5 -17 -10 -31 -10 -40 0 -29 -27 14 -33 38 -5 62 11
62 40 0 15 -36 18 -45 3z"/>
<path class="svg-animated__town" d="M7044 395 c-14 -14 -35 -25 -47 -25 -13 0 -40 -9 -61 -20 -31 -15
-36 -21 -22 -26 10 -4 29 0 43 7 14 8 35 13 46 11 11 -2 31 8 46 22 18 17 36
25 56 23 21 -1 30 3 33 16 6 29 -63 23 -94 -8z"/>
<path class="svg-animated__town" d="M7505 410 c-3 -6 -17 -7 -31 -4 -24 6 -30 -2 -16 -22 11 -16 41 -24
47 -13 4 5 22 7 41 3 43 -8 45 10 4 31 -34 18 -37 18 -45 5z"/>
<path class="svg-animated__town" d="M7610 407 c0 -12 60 -37 89 -37 24 0 9 20 -25 35 -45 19 -64 19 -64
2z"/>
<path class="svg-animated__town" d="M7893 405 c-3 -9 -4 -17 -2 -19 4 -4 102 -9 134 -7 41 2 -9 28 -68
35 -47 5 -59 3 -64 -9z"/>
<path class="svg-animated__town" d="M257 404 c-4 -4 -32 -6 -63 -5 -60 2 -114 -6 -113 -17 5 -35 -3 -72
-16 -72 -18 0 -19 11 -2 29 10 11 9 13 -1 7 -7 -4 -12 -1 -12 7 0 8 -7 20 -15
27 -12 10 -16 9 -21 -5 -4 -10 -1 -21 7 -26 10 -6 10 -9 2 -9 -8 0 -13 -13
-13 -31 0 -27 3 -30 23 -24 12 4 33 14 46 22 14 9 35 13 52 9 16 -3 31 -1 35
6 9 14 166 1 212 -18 27 -11 43 -12 74 -4 21 6 42 9 47 6 5 -3 32 1 60 10 34
10 86 14 158 13 149 -3 163 -2 163 16 0 18 -4 18 -180 15 -74 -1 -141 -7 -147
-12 -9 -7 -22 -7 -43 2 -25 10 -32 10 -45 -4 -24 -23 -59 -20 -95 10 -21 18
-38 25 -55 21 -19 -3 -25 0 -23 12 3 16 -23 27 -35 15z m-91 -23 c-4 -5 -1
-11 6 -13 7 -3 -5 -5 -27 -5 l-40 -1 30 13 c37 17 38 17 31 6z"/>
<path class="svg-animated__town" d="M957 401 c-83 -7 -84 -26 -2 -27 85 -1 125 6 125 22 0 15 -4 15 -123
5z"/>
<path class="svg-animated__town" d="M2467 393 c-3 -2 -39 -6 -81 -8 -42 -1 -83 -8 -91 -15 -10 -9 -24 -8
-59 4 -44 15 -76 13 -76 -5 0 -5 13 -9 28 -9 16 0 37 -7 48 -15 25 -19 54 -19
81 0 19 13 127 21 188 13 32 -5 29 14 -3 28 -17 7 -33 10 -35 7z"/>
<path class="svg-animated__town" d="M2587 389 c-9 -5 -15 -14 -13 -18 4 -6 146 -7 171 0 6 1 37 -3 70
-10 46 -10 71 -11 110 -2 28 6 65 9 83 5 40 -8 44 12 5 27 -20 7 -40 7 -70 -1
-24 -7 -60 -9 -85 -5 -79 13 -252 16 -271 4z"/>
<path class="svg-animated__town" d="M6810 376 c0 -23 25 -54 36 -43 6 5 -23 67 -31 67 -3 0 -5 -11 -5
-24z"/>
<path class="svg-animated__town" d="M2002 365 c-24 -12 -43 -26 -43 -31 1 -15 101 -13 101 2 0 8 6 14 14
14 21 0 31 21 15 31 -20 12 -38 9 -87 -16z"/>
<path class="svg-animated__town" d="M6575 366 c-13 -20 -22 -23 -59 -19 l-43 5 -1 -51 c0 -28 3 -53 9
-56 9 -6 32 38 34 65 0 11 10 14 38 12 31 -2 39 1 45 19 8 20 9 20 25 5 27
-27 42 -8 16 20 -28 30 -44 30 -64 0z"/>
<path class="svg-animated__town" d="M1657 358 c-6 -4 -9 -9 -6 -12 8 -9 260 -13 265 -5 2 4 -2 11 -9 17
-14 12 -231 12 -250 0z"/>
<path class="svg-animated__town" d="M6862 354 c1 -9 9 -19 16 -22 9 -3 13 2 10 14 -1 9 -9 19 -16 22 -9
3 -13 -2 -10 -14z"/>
</g>
</svg>
